<svg width="120" height="32" viewBox="0 0 120 32" fill="none" xmlns="http://www.w3.org/2000/svg">
<path d="M12.8902 0.400391H0V31.6004L12.8902 0.400391Z" fill="#E73D1C"/>
<path d="M21.9596 0.400391H34.833V31.6004L21.9596 0.400391Z" fill="#E73D1C"/>
<path d="M25.6293 31.6004L17.4249 11.8996L11.7901 25.3281H17.7944L20.2465 31.6004H25.6293Z" fill="#E73D1C"/>
<path fill-rule="evenodd" clip-rule="evenodd" d="M68.2284 25.5449C69.7988 25.5449 71.4699 25.2559 73.1662 24.5165C73.3005 24.4655 73.3257 24.406 73.3257 24.2786C73.2753 23.8026 73.2166 23.1142 73.2166 22.5872V6.60904C73.2166 6.50705 73.2166 6.45605 73.0906 6.45605H70.2438C70.1347 6.45605 70.0843 6.50705 70.0843 6.64303V12.0569C69.6392 12.0059 69.3285 11.9804 68.959 11.9804C64.3655 11.9804 61.544 15.0486 61.544 18.8817C61.544 23.3267 64.4411 25.5449 68.2284 25.5449ZM70.0843 22.5872C69.614 22.7402 69.0934 22.7997 68.5643 22.7997C66.4817 22.7997 64.777 21.6099 64.777 18.7202C64.777 16.162 66.5321 14.6491 68.8582 14.6491C69.3285 14.6491 69.74 14.7001 70.0843 14.8361V22.5872ZM55.6043 20.709L57.1242 25.12C57.1746 25.2305 57.2502 25.2815 57.3846 25.2815H60.3069C60.4665 25.2815 60.4917 25.205 60.4665 25.0435L54.4286 8.07088C54.4034 7.9349 54.3782 7.9094 54.2439 7.9094H50.6162C50.5154 7.9094 50.4566 7.98589 50.4566 8.09638C50.4062 8.98878 50.3306 9.26075 50.2215 9.52422L44.8386 25.018C44.8135 25.205 44.8722 25.2815 45.0234 25.2815H47.635C47.7946 25.2815 47.8702 25.2305 47.9289 25.069L49.3649 20.709H55.6043ZM50.5224 16.8338L50.5227 16.8331C51.2517 14.6144 52.0828 12.0852 52.4468 10.5526H52.472C52.8389 11.8581 53.5559 14.0665 54.1414 15.8698L54.1414 15.8699C54.3869 16.6258 54.6092 17.3106 54.7729 17.8278H50.1963C50.3012 17.5069 50.4106 17.174 50.5224 16.8338ZM76.0593 18.7797C76.0593 15.0231 78.4862 11.9804 82.4078 11.9804C86.4302 11.9804 88.622 15.0741 88.622 18.6947C88.622 22.7997 86.0356 25.5449 82.349 25.5449C77.9907 25.5449 76.0593 22.1368 76.0593 18.7797ZM85.4057 18.7797C85.4057 16.5784 84.4652 14.6491 82.2483 14.6491C80.4932 14.6491 79.242 16.213 79.242 18.7202C79.242 21.1594 80.4176 22.8507 82.4078 22.8507C84.0202 22.8507 85.4057 21.4994 85.4057 18.7797ZM91.5649 6.45605C91.4557 6.45605 91.3801 6.50705 91.3801 6.64303V24.729C91.3801 24.8055 91.4557 24.9415 91.5649 24.967C92.8161 25.3579 94.1261 25.5449 95.4781 25.5449C99.3494 25.5449 103.111 23.1142 103.111 18.2187C103.111 14.6746 100.71 11.9804 96.9477 11.9804C96.0827 11.9804 95.2766 12.1164 94.5712 12.3544L94.5376 6.66853C94.5376 6.48155 94.4872 6.45605 94.3025 6.45605H91.5649ZM99.8952 18.5417C99.8952 21.4739 97.9134 22.8507 95.772 22.8507C95.327 22.8507 94.9323 22.8252 94.5712 22.7147V14.9976C94.9827 14.8361 95.4781 14.7001 96.3934 14.7001C98.4592 14.7001 99.8952 16.026 99.8952 18.5417ZM116.423 19.3831C116.062 19.4681 115.012 19.4936 113.736 19.4936H108.428C108.504 21.3379 109.713 22.8252 112.375 22.8252C113.551 22.8252 114.626 22.6127 115.617 22.1878C115.692 22.1368 115.768 22.1623 115.768 22.2898V24.491C115.768 24.644 115.717 24.729 115.617 24.78C114.626 25.2559 113.475 25.5449 111.695 25.5449C106.942 25.5449 105.246 22.1623 105.246 18.9072C105.246 15.2356 107.437 11.9804 111.384 11.9804C115.247 11.9804 116.742 15.0486 116.742 17.5643C116.742 18.3037 116.708 18.9072 116.633 19.1961C116.608 19.3066 116.557 19.3576 116.423 19.3831ZM111.25 14.5217C109.444 14.5217 108.638 15.924 108.428 17.2159H112.325C113.316 17.2159 113.652 17.2159 113.761 17.1904V16.9779C113.761 16.213 113.24 14.5217 111.25 14.5217Z" fill="#E73D1C"/>
</svg>
